<svg id="svg" xmlns="http://www.w3.org/2000/svg" xmlns:xlink="http://www.w3.org/1999/xlink" width="400" height="582.6415094339623" viewBox="0, 0, 400,582.6415094339623"><g id="svgg"><path id="path0" d="M102.633 0.511 C 102.213 0.931,97.119 1.446,91.312 1.655 C 65.377 2.591,54.442 11.162,43.357 39.245 C 41.882 42.981,40.050 47.396,39.286 49.057 C 36.959 54.116,22.105 93.157,21.771 95.094 C 21.502 96.653,19.343 104.992,18.644 107.170 C 18.245 108.415,18.025 109.434,18.155 109.434 C 18.284 109.434,17.391 112.151,16.169 115.472 C 14.947 118.792,13.195 124.226,12.276 127.547 C 10.742 133.089,9.859 137.447,5.857 159.245 C 0.083 190.689,-1.063 216.445,2.263 240.000 C 6.046 266.787,9.130 278.105,17.423 295.625 C 34.225 331.122,61.944 357.826,100.850 375.998 C 121.715 385.744,127.236 387.811,144.906 392.496 C 160.775 396.704,160.596 396.559,162.957 407.151 C 164.023 411.935,165.489 418.226,166.213 421.132 C 170.088 436.674,165.524 468.325,157.589 480.941 C 151.481 490.651,135.817 503.435,128.167 504.953 C 126.166 505.350,118.755 506.367,111.698 507.213 C 50.179 514.587,17.917 523.763,7.658 536.806 C -3.677 551.216,28.534 567.850,80.755 574.553 C 84.075 574.980,89.170 575.906,92.075 576.612 C 120.861 583.606,260.122 583.472,305.660 576.406 C 317.370 574.589,342.835 569.591,353.962 566.926 C 361.984 565.005,376.437 559.382,384.409 555.081 C 416.174 537.943,374.218 516.348,291.321 507.165 C 269.218 504.717,265.050 502.982,251.545 490.609 C 236.033 476.398,228.547 441.060,235.335 414.091 C 240.149 394.964,239.170 396.253,251.103 393.327 C 257.034 391.872,263.245 390.130,264.906 389.456 C 266.566 388.781,270.302 387.401,273.208 386.389 C 276.113 385.377,281.208 383.359,284.528 381.905 C 287.849 380.451,292.264 378.734,294.340 378.090 C 296.415 377.445,300.647 375.319,303.744 373.364 C 306.840 371.410,310.406 369.811,311.668 369.811 C 312.930 369.811,313.962 369.287,313.962 368.645 C 313.962 368.004,316.469 366.136,319.533 364.494 C 347.810 349.343,377.468 313.813,388.214 282.215 C 397.571 254.704,399.028 245.364,399.038 212.830 C 399.046 187.340,397.950 175.338,393.799 155.472 C 391.379 143.891,390.883 141.390,389.315 132.830 C 388.479 128.264,387.187 122.830,386.445 120.755 C 385.703 118.679,383.304 110.868,381.115 103.396 C 378.927 95.925,376.562 88.453,375.861 86.792 C 375.160 85.132,372.741 78.679,370.487 72.453 C 368.232 66.226,365.513 59.094,364.444 56.604 C 363.374 54.113,361.066 48.340,359.313 43.774 C 349.934 19.334,341.646 8.783,327.749 3.587 C 320.964 1.050,105.044 -1.900,102.633 0.511 M109.695 251.724 C 126.686 268.353,156.812 284.383,173.322 285.579 C 176.084 285.779,178.689 286.504,179.113 287.189 C 179.537 287.875,188.020 288.331,197.965 288.202 C 232.957 287.750,263.015 276.270,286.239 254.488 C 298.719 242.783,315.702 249.491,311.903 264.625 C 309.509 274.165,265.058 306.189,253.942 306.382 C 252.893 306.400,250.855 307.011,249.413 307.739 C 229.403 317.849,182.952 318.091,153.962 308.238 C 152.717 307.815,150.679 307.268,149.434 307.023 C 145.127 306.174,116.968 291.531,113.648 288.413 C 111.815 286.692,109.767 285.283,109.097 285.283 C 104.389 285.283,89.057 267.039,89.057 261.437 C 89.057 248.486,100.759 242.978,109.695 251.724 " stroke="none" fill="#000000" fill-rule="evenodd"></path></g></svg>